<svg width="512" height="512" viewBox="0 0 512 512" fill="none" xmlns="http://www.w3.org/2000/svg">
<g clip-path="url(#clip0_3_26)">
<path d="M495.618 417.311C476.879 428.049 457.069 433.487 436.382 433.487H436.349C390.766 433.487 348.061 400.479 296.22 348.65L158.446 210.91C117.53 169.949 90.794 142.107 82.169 104.855C74.918 73.534 79.205 44.009 94.864 16.687C87.911 18.774 81.528 22.56 76.242 27.846L53.344 50.7C17.14 86.902 8.119 123.851 18.469 168.555C27.094 205.807 52.248 245.493 93.162 286.453L225.807 419.065C277.648 470.894 327.064 497.186 372.647 497.186H372.682C406.247 497.186 433.408 487.026 461.515 458.918L484.414 436.019C489.803 430.648 493.554 424.199 495.618 417.311Z" fill="#C0BDFE"/>
<path d="M497.316 443.428C513.465 425.095 516.664 398.873 505.063 376.963C486.114 341.13 427.516 305.173 415.915 298.301C415.848 298.262 415.782 298.223 415.714 298.184C405.457 292.326 394.523 289.23 384.095 289.23C367.766 289.23 353.648 296.923 345.162 310.388C335.219 322.242 327.151 331.046 324.93 333.076C318.412 337.43 313.061 339.734 308.032 339.955C307.51 339.435 306.991 338.924 306.468 338.4L168.701 200.668C128.775 160.699 103.919 134.53 96.29 101.588C90.408 76.185 93.172 51.966 104.456 29.492C105.523 29.377 106.6 29.309 107.688 29.309C112.551 29.309 117.429 30.518 121.748 32.78C143.061 44.05 167.532 77.48 183.329 105.006C183.515 105.329 183.659 105.58 183.761 105.757C188.337 113.84 189.963 122.038 188.218 128.28C187.101 132.296 184.616 135.476 180.833 137.731C173.959 141.833 171.709 150.729 175.809 157.603C179.911 164.479 188.808 166.727 195.681 162.627C205.932 156.512 213.008 147.32 216.137 136.066C220.005 122.233 217.441 106.354 208.918 91.357C208.885 91.298 208.818 91.185 208.785 91.127L208.469 90.579C197.389 71.27 168.079 24.491 135.247 7.12898C126.745 2.67498 117.215 0.320984 107.686 0.320984C94.484 0.320984 81.951 4.64998 71.679 12.607C71.533 12.72 71.388 12.835 71.243 12.948C70.499 13.535 69.77 14.141 69.052 14.766C68.865 14.928 68.675 15.086 68.49 15.252C67.644 16.007 66.81 16.781 66.003 17.59L43.095 40.451C4.78 78.765 -7.531 120.51 4.349 171.825C4.927 174.321 5.572 176.824 6.284 179.336C6.726 180.897 7.204 182.464 7.699 184.031C16.2 210.983 32.34 238.813 55.901 267.174C56.839 268.302 57.788 269.431 58.749 270.561C59.771 271.763 60.804 272.966 61.852 274.168C63.372 275.913 64.919 277.66 66.494 279.407C70.471 283.82 74.613 288.244 78.944 292.679C80.253 294.018 81.576 295.36 82.917 296.701L215.562 429.313C220.687 434.437 225.796 439.324 230.888 443.973C280.109 488.918 327.726 511.677 372.649 511.677H372.682C411.805 511.677 442.363 498.566 471.765 469.164L494.646 446.283C495.449 445.483 496.214 444.658 496.964 443.823C497.083 443.694 497.2 443.562 497.316 443.428ZM341.703 356.727C341.804 356.659 341.906 356.588 342.006 356.517C347.482 352.599 363.344 333.833 368.074 328.175C368.57 327.581 369.018 326.949 369.413 326.284C372.639 320.856 377.441 318.218 384.092 318.218C389.458 318.218 395.385 319.976 401.241 323.302C424.341 336.993 466.747 366.518 479.442 390.521C482.333 395.982 483.4 401.965 482.794 407.745C467.95 415.208 452.363 418.994 436.346 418.994C402.745 418.994 369.337 397.23 331.649 362.637C334.964 360.988 338.313 359.026 341.703 356.727ZM148.198 221.16L285.971 358.9C339.453 412.37 385.493 447.981 436.382 447.981C441.978 447.981 447.526 447.624 453.022 446.916L451.268 448.67C427.101 472.835 404.335 482.692 372.682 482.692H372.649C331.045 482.692 285.088 457.837 236.056 408.815L103.417 276.209C64.425 237.173 40.594 199.853 32.589 165.286C22.926 123.547 32.196 92.342 63.582 60.959L65.288 59.257C63.265 75.091 64.179 91.416 68.049 108.125C77.456 148.757 104.631 177.546 148.198 221.16Z" fill="#A6A1FF"/>
<path d="M358.952 230.529C358.258 230.529 357.556 230.478 356.849 230.377C348.928 229.226 343.439 221.871 344.59 213.95C346.464 201.051 342.264 188.374 333.063 179.177C323.864 169.976 311.189 165.775 298.29 167.65C290.374 168.804 283.014 163.313 281.863 155.391C280.712 147.469 286.2 140.115 294.122 138.964C315.845 135.807 338.06 143.177 353.562 158.678C369.062 174.179 376.432 196.399 373.276 218.118C372.228 225.331 366.032 230.529 358.952 230.529Z" fill="#2C2F33"/>
<path d="M414.957 226.155C414.595 226.155 414.229 226.142 413.861 226.114C405.878 225.517 399.891 218.563 400.488 210.581C402.492 183.76 392.747 157.482 373.751 138.488C354.756 119.493 328.477 109.748 301.658 111.753C293.653 112.347 286.719 106.363 286.124 98.38C285.527 90.397 291.514 83.443 299.497 82.846C334.737 80.21 369.278 93.021 394.25 117.99C419.22 142.96 432.029 177.495 429.396 212.741C428.826 220.354 422.471 226.155 414.957 226.155Z" fill="#2C2F33"/>
</g>
<defs>
<clipPath id="clip0_3_26">
<rect width="511.999" height="511.999" fill="white"/>
</clipPath>
</defs>
</svg>
