<svg width="490" height="249" viewBox="0 0 490 249" fill="none" xmlns="http://www.w3.org/2000/svg">
<path d="M317.8 239.1H195.4C173.2 239.1 155.1 221 155.1 198.8V49.4C155.1 27.2 173.2 9.09998 195.4 9.09998H440.2C462.4 9.09998 480.5 27.2 480.5 49.4V198.8C480.5 221 462.4 239.1 440.2 239.1H301.5" fill="#A6A1FF"/>
<path d="M195.4 248.1H440.2C467.4 248.1 489.5 226 489.5 198.7V49.4C489.5 22.2 467.4 0 440.2 0H195.4C168.2 0 146.1 22.1 146.1 49.4V198.8C146 226 168.2 248.1 195.4 248.1ZM164.2 49.4C164.2 32.2 178.2 18.2 195.4 18.2H440.2C457.4 18.2 471.4 32.2 471.4 49.4V198.8C471.4 216 457.4 230 440.2 230H301.5H195.4C178.2 230 164.2 216 164.2 198.8V49.4V49.4Z" fill="#2C2F33"/>
<path d="M195.7 199.1C197.5 201.1 200 202.2 202.5 202.2C204.6 202.2 206.8 201.5 208.5 199.9L286.8 130.9L312.2 150.6C313.8 151.9 315.8 152.5 317.8 152.5C319.8 152.5 321.7 151.9 323.4 150.6L349.6 130.3L427.1 199.8C428.8 201.4 431 202.1 433.1 202.1C435.6 202.1 438.1 201.1 439.9 199.1C443.2 195.4 442.9 189.6 439.2 186.3L364.2 119L438.8 61.1C442.8 58 443.5 52.3 440.4 48.4C437.3 44.4 431.6 43.7 427.7 46.8L317.8 132.1L292 112L208.1 46.9C204.1 43.8 198.5 44.5 195.4 48.5C192.3 52.5 193 58.1 197 61.2L272.3 119.7L196.6 186.4C192.7 189.7 192.4 195.4 195.7 199.1Z" fill="#2C2F33"/>
<path d="M117.6 133.2C122.6 133.2 126.7 129.1 126.7 124.1C126.7 119.1 122.6 115 117.6 115H45.6C40.6 115 36.5 119.1 36.5 124.1C36.5 129.1 40.6 133.2 45.6 133.2H117.6Z" fill="#2C2F33"/>
<path d="M9.1 85.3H117.6C122.6 85.3 126.7 81.2 126.7 76.2C126.7 71.2 122.6 67.1 117.6 67.1H9.1C4.1 67.1 0 71.2 0 76.2C0.1 81.2 4.1 85.3 9.1 85.3Z" fill="#2C2F33"/>
<path d="M126.7 172C126.7 167 122.6 162.9 117.6 162.9H70.2C65.2 162.9 61.1 167 61.1 172C61.1 177 65.2 181.1 70.2 181.1H117.6C122.6 181.1 126.7 177 126.7 172Z" fill="#2C2F33"/>
</svg>
