<svg width="20" height="27" viewBox="0 0 24 32" fill="none" xmlns="http://www.w3.org/2000/svg">
<path d="M12.0001 0C5.38323 0 0 5.38323 0 12C0 14.7352 1.92355 18.7881 5.71728 24.0458C8.48677 27.8841 11.2965 31.0111 11.3245 31.0423L12 31.7919L12.6755 31.0423C12.7036 31.0112 15.5132 27.8842 18.2827 24.0458C22.0764 18.788 24 14.7352 24 12C24.0001 5.38323 18.6169 0 12.0001 0ZM12 29.0603C8.63061 25.1786 1.81853 16.4177 1.81853 12C1.81844 6.38592 6.38592 1.81844 12.0001 1.81844C17.6143 1.81844 22.1816 6.38592 22.1816 12C22.1816 16.4151 15.3694 25.1777 12 29.0603Z" fill="black"/>
<path d="M12.0001 16.5186C14.4956 16.5186 16.5186 14.4956 16.5186 12.0001C16.5186 9.50461 14.4956 7.48163 12.0001 7.48163C9.50461 7.48163 7.48162 9.50461 7.48162 12.0001C7.48162 14.4956 9.50461 16.5186 12.0001 16.5186Z" fill="black"/>
</svg>
