<svg width="119" height="125" viewBox="0 0 119 125" fill="none" xmlns="http://www.w3.org/2000/svg">
<g clip-path="url(#clip0_6_3)">
<path d="M42.58 69.16C42.4093 69.0783 42.2482 68.9777 42.1 68.86C40.1 67.31 38.01 65.58 36.16 64.06C33.47 61.85 30.37 59.3 28.16 57.49C26.7862 56.3238 25.1546 55.5011 23.4 55.09C22.5098 54.8836 21.5804 54.9216 20.71 55.2C20.0602 55.4935 19.5456 56.0223 19.27 56.68C18.7641 58.0602 18.5861 59.5392 18.75 61C18.9424 62.8532 19.4426 64.6614 20.23 66.35C21.2743 68.7091 22.5863 70.9404 24.14 73C24.2172 73.0886 24.2781 73.1902 24.32 73.3L47.67 106.6C47.9614 107.014 48.1405 107.496 48.19 108C48.67 111.84 49.48 114.75 50.66 116.56C50.9926 117.176 51.4888 117.689 52.0939 118.042C52.699 118.395 53.3897 118.574 54.09 118.56H90.83C93.0752 118.549 95.2631 117.851 97.1 116.56C99.4807 114.775 101.435 112.483 102.82 109.85C102.82 109.85 102.89 109.74 102.93 109.7C103.59 108.56 104.48 107.08 105.33 105.7C109.06 99.58 112.33 94.23 112.67 86.63L112.45 76.15C112.43 76.004 112.43 75.856 112.45 75.71C112.45 75.56 112.45 74.57 112.45 73.24C112.52 66.31 112.63 57.75 106.29 56.68H102.2C102.2 58.68 102.05 60.68 101.94 62.55C101.83 64.28 101.72 65.91 101.72 67.49C101.72 67.8918 101.641 68.2898 101.487 68.661C101.333 69.0323 101.108 69.3696 100.824 69.6537C100.54 69.9379 100.202 70.1633 99.831 70.3171C99.4598 70.4708 99.0619 70.55 98.66 70.55C98.2582 70.55 97.8603 70.4708 97.489 70.3171C97.1178 70.1633 96.7804 69.9379 96.4963 69.6537C96.2121 69.3696 95.9867 69.0323 95.833 68.661C95.6792 68.2898 95.6 67.8918 95.6 67.49C95.6 65.9 95.71 64.06 95.82 62.14C96.23 55.61 96.71 48.14 91.5 47.2H87.44C87.2187 47.1915 86.9982 47.1681 86.78 47.13C86.78 49.49 86.67 51.93 86.52 54.29C86.41 56.02 86.3 57.65 86.3 59.23C86.3 60.0416 85.9776 60.8199 85.4038 61.3937C84.8299 61.9676 84.0516 62.29 83.24 62.29C82.4285 62.29 81.6501 61.9676 81.0763 61.3937C80.5024 60.8199 80.18 60.0416 80.18 59.23C80.18 57.64 80.29 55.8 80.4 53.88C80.81 47.35 81.28 39.88 76.08 38.94H72C71.7263 38.9405 71.4537 38.9035 71.19 38.83V50.65C71.19 51.4616 70.8676 52.2399 70.2938 52.8137C69.7199 53.3876 68.9416 53.71 68.13 53.71C67.3185 53.71 66.5401 53.3876 65.9663 52.8137C65.3924 52.2399 65.07 51.4616 65.07 50.65V18.65C65.07 13.3 62.89 9.91 60.07 8.51C59.0747 8.00646 57.9754 7.74277 56.86 7.74C55.7452 7.74749 54.6469 8.01093 53.65 8.51C50.88 9.91 48.74 13.31 48.74 18.8V74.8C48.74 75.6116 48.4176 76.3899 47.8438 76.9637C47.2699 77.5376 46.4916 77.86 45.68 77.86C44.8685 77.86 44.0901 77.5376 43.5163 76.9637C42.9424 76.3899 42.62 75.6116 42.62 74.8V69.16H42.58ZM102.52 0.810001C102.284 0.561803 102.001 0.362593 101.687 0.223746C101.374 0.0848992 101.036 0.00913418 100.694 0.000776911C100.002 -0.0161014 99.3313 0.242611 98.83 0.720001C98.3288 1.19739 98.0377 1.85435 98.0208 2.54636C98.0039 3.23837 98.2626 3.90874 98.74 4.41L106.11 12.12H95.055H84C83.3078 12.12 82.6439 12.395 82.1545 12.8845C81.665 13.3739 81.39 14.0378 81.39 14.73C81.39 15.4222 81.665 16.0861 82.1545 16.5755C82.6439 17.065 90.83 17.34 84 17.34H106.14L98.76 25.09C98.2826 25.5913 98.0239 26.2616 98.0408 26.9536C98.0577 27.6456 98.3488 28.3026 98.85 28.78C99.3513 29.2574 100.022 29.5161 100.714 29.4992C101.406 29.4823 102.063 29.1913 102.54 28.69L114.12 16.53C114.58 16.0435 114.836 15.3995 114.836 14.73C114.836 14.0605 114.58 13.4165 114.12 12.93L102.52 0.810001ZM71.2 32.81C71.4637 32.7365 71.7363 32.6995 72.01 32.7H76.25C76.4846 32.7085 76.7184 32.7318 76.95 32.77C82.59 33.66 85.14 36.94 86.17 41.22C86.5748 41.0322 87.014 40.9301 87.46 40.92H91.7C91.9346 40.9285 92.1684 40.9518 92.4 40.99C98.49 41.99 100.92 45.67 101.81 50.4C101.969 50.3789 102.131 50.3789 102.29 50.4H106.53C106.765 50.4085 106.998 50.4318 107.23 50.47C118.89 52.28 118.74 63.86 118.63 73.19V75.62L118.89 86.39V86.72C118.45 95.91 114.83 101.84 110.66 108.72C109.96 109.86 109.26 111.04 108.3 112.72C108.3 112.72 108.3 112.79 108.23 112.83C106.389 116.259 103.806 119.234 100.67 121.54C97.8294 123.54 94.4442 124.622 90.97 124.64H54.27C52.5518 124.704 50.8478 124.307 49.3353 123.489C47.8228 122.671 46.5571 121.463 45.67 119.99C43.97 117.48 42.87 113.99 42.28 109.51L19.41 76.72L19.3 76.61C17.4905 74.1883 15.9451 71.5802 14.69 68.83C13.6139 66.4891 12.9379 63.9844 12.69 61.42C12.4517 58.9588 12.8191 56.4767 13.76 54.19C14.2057 53.1382 14.8561 52.1854 15.6732 51.3872C16.4904 50.5889 17.4581 49.961 18.52 49.54C20.4831 48.7804 22.6289 48.6271 24.68 49.1C27.4411 49.6985 30.013 50.9655 32.17 52.79C34.01 54.34 37.11 56.85 40.17 59.32L42.68 61.39V18.84C42.68 10.69 46.3 5.45 50.98 3.09C52.8296 2.14386 54.8775 1.65049 56.955 1.65049C59.0326 1.65049 61.0804 2.14386 62.93 3.09C67.62 5.45 71.3 10.73 71.3 18.73V32.82H71.22L71.2 32.81Z" fill="black"/>
</g>
<defs>
<clipPath id="clip0_6_3">
<rect width="118.89" height="124.52" fill="white"/>
</clipPath>
</defs>
</svg>
